PathFileType	4	(X/Y/Z)	Patient4_TMGait_0pt6_02_right_23.trc.trc
DataRate	CameraRate	NumFrames	NumMarkers	Units	OrigDataRate	OrigDataStartFrame	OrigNumFrames
85.889570552147	85.889570552147	5	33	mm	85.889570552147	1	       141
Frame#	Time	Sacral			L.Shoulder			Chest			R.Shoulder			Neck			R.ASIS			L.ASIS			R.Thigh.Superior			R.Thigh.Lateral			R.Thigh.Inferior			R.Patella			L.Thigh.Superior			L.Thigh.Lateral			L.Thigh.Inferior			L.Patella			L.Shank.Superior			L.Shank.Lateral			L.Shank.Inferior			R.Shank.Superior			R.Shank.Lateral			R.Shank.Inferior			R.Heel			R.Midfoot.Superior			R.Midfoot.Lateral			R.Toe			L.Heel			L.Midfoot.Lateral			L.Midfoot.Superior			L.Toe			L.Elbow			L.Wrist			R.Elbow			R.Wrist			
		X1	Y1	Z1	X2	Y2	Z2	X3	Y3	Z3	X4	Y4	Z4	X5	Y5	Z5	X6	Y6	Z6	X7	Y7	Z7	X8	Y8	Z8	X9	Y9	Z9	X10	Y10	Z10	X11	Y11	Z11	X12	Y12	Z12	X13	Y13	Z13	X14	Y14	Z14	X15	Y15	Z15	X16	Y16	Z16	X17	Y17	Z17	X18	Y18	Z18	X19	Y19	Z19	X20	Y20	Z20	X21	Y21	Z21	X22	Y22	Z22	X23	Y23	Z23	X24	Y24	Z24	X25	Y25	Z25	X26	Y26	Z26	X27	Y27	Z27	X28	Y28	Z28	X29	Y29	Z29	X30	Y30	Z30	X31	Y31	Z31	X32	Y32	Z32	X33	Y33	Z33	

1	27.600000000000	828.689788540214	1020.564331817846	419.458235295352	1018.623714019608	1441.019343782565	235.916789119598	1120.884060497795	1367.558342531683	394.827997919133	1041.183960516168	1442.503740213401	569.671790284610	1015.283910629666	1502.048131407684	387.941351703504	1054.746847759501	952.188406931007	535.989138434226	1038.016820077141	961.111022406268	263.019551264577	1140.023774873252	787.605661272019	499.479155842994	1111.010806024199	668.563992874315	574.581961120375	1195.636929286500	631.257012642986	488.246906745261	1220.376239694379	516.949273004493	509.999052520738	1085.398077162826	751.849387662255	297.853916253150	990.723388421291	638.913952153523	240.754354334726	1070.479863452693	559.862127033615	307.288320951174	1067.927883210912	490.166796022370	319.322633103496	1040.468602272456	418.785796858210	311.453758229514	948.519458450437	304.875617330803	265.447740211668	999.505319090746	194.445629302139	337.374858942231	1141.702691806634	442.811467566096	524.481931306368	1020.248957014247	408.751622252466	588.467076508396	1002.924688140885	297.678077610161	545.861328510739	802.769128806016	249.046106266714	522.878318309290	962.940593672993	169.261612582449	561.232395246392	854.751731972861	184.135382429715	597.283312848655	1013.167931055290	50.012026922805	592.189206950122	869.077168608120	39.599925571529	385.158757600602	940.210566491730	35.998840258103	302.188335923974	1024.951118162914	96.643459521441	325.942897705801	1152.361182883728	40.470057898845	292.935484271720	1035.260134477539	1089.873764111183	108.142329224271	1228.529476474954	914.577283384086	127.503575730460	971.314729898748	1097.297689863423	681.364287210956	1011.806493786248	837.561701039378	689.956695603696	
2	27.611642857143	827.358523542600	1021.340106530780	418.400776375810	1020.713674012696	1441.533404199004	235.941522686918	1121.115058192404	1367.407122545021	395.653991064578	1040.297142288187	1442.664050881552	569.791659837256	1016.282515445921	1502.383337461323	387.932418084739	1052.665495915058	953.120059938996	536.237484069682	1037.986138905813	962.055037941369	263.143024951444	1139.921924935185	791.688424516046	499.804139200918	1112.806529025311	671.923024072138	575.009572267065	1198.340706227888	636.171723770428	489.094861394358	1225.157717213260	523.333136572579	510.801856242013	1082.267100701754	751.087523437077	298.682243546328	986.831944513319	639.161833929217	240.602059141258	1064.957953931961	559.300393523029	307.850285748517	1061.681137227920	489.756691230004	319.627854101067	1034.202772817410	418.607773284859	311.584215377990	942.049788447293	305.001312872248	265.296829973444	992.436282643999	194.412703531046	337.370947971427	1150.404264435375	446.524862988555	524.933203054562	1031.679257541644	405.850533158364	589.051327178632	1020.227952715921	294.479412896147	545.987213688747	823.440390180253	234.920907372083	523.525513252253	987.385377179248	164.835575844086	560.938092761573	879.268201152481	173.308415733977	597.660377006239	1044.464445150650	49.128750998770	591.391535680993	861.654584864123	39.657652964698	385.091641287019	932.819556529149	35.978651201560	302.155808154605	1017.598321239615	96.666368198389	325.867066226017	1144.980763238099	40.458690132103	292.885595269744	1040.184520464838	1091.464579879886	107.106554384184	1240.145775963308	925.413547237098	127.443144219828	961.178062618022	1100.315998022513	681.674195079557	990.989855357232	840.139606901554	691.715633473634	
3	27.623285714286	826.037281818340	1022.099726041821	417.361295381234	1022.784926897507	1442.016212956949	235.982618958393	1121.351098380909	1367.228709197023	396.478610171411	1039.432214075417	1442.799259663496	569.909039974841	1017.276084658011	1502.690515780328	387.937362882127	1050.616700968992	954.024655544226	536.503994471871	1037.912474238862	962.914260618169	263.280396787703	1139.766744883444	795.625717564259	500.163747407599	1114.369756541448	675.097027740565	575.416151287684	1200.812373841382	640.837657683164	489.974914231252	1229.613069632616	529.496458923085	511.597036704037	1079.192032602602	750.326012626269	299.508516544133	983.011417042327	639.386522834608	240.467852348475	1059.543485177597	558.736465896926	308.409358265351	1055.549485987746	489.339764926621	319.946510208476	1028.048164370008	418.415263160447	311.731735783668	935.683725307285	305.114699674315	265.164083736743	985.456851937401	194.363775798090	337.389385362376	1158.822870947136	450.085464010444	525.377906617344	1043.038412337665	402.784893388956	589.747300195246	1037.461269878740	291.202888574772	546.177379142074	844.249171431897	220.675221993935	524.373170396827	1011.857108191416	160.411554479238	560.713718867562	903.936542820303	162.460122991798	598.183196399092	1075.791656118459	48.387344034357	590.612135366603	854.326387050535	39.709208026359	385.023195360756	925.517040830638	35.957685875064	302.125181591752	1010.332238806227	96.685775391182	325.801421414575	1137.688221489701	40.447972421287	292.838495690939	1045.011727469211	1093.007554393012	106.122153398514	1251.493886904144	936.131818679097	127.409873105527	951.182483906684	1103.364185385103	682.015015002579	970.586372083958	842.802036021478	693.408743587556	
4	27.634928571429	824.744595463759	1022.813454178438	416.365840423844	1024.815227775330	1442.427409082996	236.061643074305	1121.596298059195	1366.990984759976	397.307225055258	1038.612644141763	1442.881795960138	570.030220425612	1018.259906267089	1502.934899074048	387.975604034630	1048.634019242316	954.863560073664	536.814862201258	1037.768218158771	963.605186648429	263.455036438345	1139.466121692104	799.199225644294	500.613818275131	1115.432689149177	677.880349670084	575.836885379405	1202.746482751079	644.956728510868	490.933455665271	1233.361719825388	535.204139671704	512.403360302103	1076.214796809724	749.549316722022	300.342658200384	979.307578964016	639.558392927886	240.374681122029	1054.301034786721	558.154129109596	308.971950125064	1049.598032849475	488.900242326913	320.296933552355	1022.061034840039	418.185680054780	311.918683953349	929.467744974922	305.201982427379	265.068581663637	978.590748106588	194.280211858268	337.453816855990	1166.655375558678	453.343820764493	525.848954260817	1054.263928799645	399.390807710656	590.666793062904	1054.611539143812	287.811558643278	546.499978125158	865.492285835500	206.204171193681	525.555974421830	1036.483316870953	156.081052798868	560.641217517912	929.038847397800	151.611684966348	598.952945099652	1107.271549101195	48.069596912259	589.886012846833	847.111960164232	39.749535951261	384.953697217574	918.317778634646	35.935863434356	302.098586798518	1003.165279217080	96.697174015906	325.757264626237	1130.497491799954	40.438584901490	292.797574242490	1049.676261149969	1094.451944017276	105.243488527584	1262.356195974742	946.657289653036	127.445268369312	941.438460463098	1106.476846156310	682.402594896342	950.919290104388	845.640212219374	694.979830893387	
5	27.646571428571	823.501872755168	1023.450924118329	415.439703223181	1026.783721724779	1442.730291873548	236.197042579918	1121.853741200197	1366.665998290586	398.145186351175	1037.860692153693	1442.889309060618	570.165386257409	1019.229767973414	1503.085643900448	388.064159219318	1046.747781769373	955.599499885858	537.193708663093	1037.539653225552	964.065469741439	263.688266388100	1138.936107293009	802.199530402476	501.205666099155	1115.761607769886	680.093342535914	576.318245790909	1203.864931307401	648.259243374551	492.009843283016	1236.076049846311	540.251958685488	513.238655258442	1073.361830879219	748.739013613956	301.193769302923	975.749575118649	639.651851116970	240.341233893568	1049.268396858429	557.535085878329	309.545815836915	1043.863717467631	488.421212226455	320.694594777268	1016.269835958574	417.897603216166	312.163549601590	923.422102982219	305.250825354994	265.025995481951	971.840403060651	194.146218903563	337.582339736573	1173.645032696203	456.179861896895	526.384660652734	1065.305840780963	395.552630265548	591.899246904724	1071.676315198899	284.305458387311	547.009642301427	887.459949564817	191.457027715348	527.157891632781	1061.386885442443	151.976414268481	560.790474521233	954.836247922903	140.827942754264	600.032225769164	1139.008336982073	48.479590008205	589.244111876085	840.005178396543	39.773926851582	384.885945652131	911.213892677374	35.913296095427	302.078044254217	996.087813261943	96.696632497650	325.744029444708	1123.399670273027	40.430888520195	292.765892705977	1054.135655479385	1095.754231705935	104.513538152158	1272.570808452052	956.932848340761	127.587343366622	932.032697239053	1109.676307009896	682.838808410471	932.224630861950	848.720540255041	696.388180183527	
